<svg width="400" height="300" xmlns="http://www.w3.org/2000/svg">
 <g>
  <title>Layer 1</title>
  <rect stroke="#000" stroke-width="0" id="svg_3" height="300" width="400" y="0" x="0" fill="#6699ff"/>
  <g stroke="null">
   <path stroke="null" d="m174.1963,64.31897c-25.24637,7.59256 -45.76417,26.0183 -56.19834,49.88116l37.28035,0c3.59117,-20.84597 10.26636,-38.2462 18.918,-49.88116zm-9.99413,85.68103c0,8.40924 0.47621,16.35607 1.35107,23.86658l68.91476,0c0.87486,-7.51052 1.35107,-15.45734 1.35107,-23.86658s-0.47621,-16.35607 -1.35107,-23.86658l-68.92333,0c-0.85771,7.4956 -1.3425,15.47599 -1.3425,23.86658zm68.46726,-35.79987c-6.05987,-32.83147 -19.90249,-53.69981 -32.6562,-53.69981s-26.60005,20.86834 -32.67857,53.69981l65.33477,0zm49.3367,0c-10.43417,-23.86285 -30.95197,-42.2886 -56.19834,-49.89607c8.65164,11.64988 15.32682,29.05011 18.90681,49.89607l37.29153,0zm-56.19834,121.49582c25.24637,-7.60747 45.75671,-26.36512 56.19834,-49.89607l-37.28035,0c-3.59117,20.84597 -10.26636,38.26111 -18.918,49.89607zm60.375,-109.56253l-39.75278,0c0.83831,7.64476 1.29961,15.60278 1.29961,23.86658s-0.4613,16.22182 -1.29961,23.86658l39.75278,0c2.10362,-7.60747 3.31671,-15.58786 3.31671,-23.86658s-1.22838,-16.25911 -3.31671,-23.86658zm-118.84812,59.66646c6.05987,32.83147 19.90249,53.69981 32.6562,53.69981s26.59632,-20.86834 32.6562,-53.69981l-65.31239,0zm-15.06578,-35.79987c0,-8.2638 0.4613,-16.22182 1.29961,-23.86658l-39.75091,0c-2.10362,7.60747 -3.31708,15.58786 -3.31708,23.86658s1.21347,16.25911 3.31708,23.86658l39.75651,0c-0.85771,-7.64476 -1.3052,-15.58786 -1.3052,-23.86658zm-34.27092,35.79987c10.43417,23.86285 30.61635,42.2886 56.19834,49.89607c-8.65164,-11.63496 -15.32682,-29.05011 -18.90681,-49.89607l-37.29153,0z" fill="#ffffff"/>
  </g>
 </g>

</svg>